<?xml version="1.0" standalone="no"?>
<!DOCTYPE svg PUBLIC "-//W3C//DTD SVG 20010904//EN"
 "http://www.w3.org/TR/2001/REC-SVG-20010904/DTD/svg10.dtd">
<svg version="1.0" xmlns="http://www.w3.org/2000/svg"
 width="2000.000000pt" height="2000.000000pt" viewBox="0 0 2000.000000 2000.000000"
 preserveAspectRatio="xMidYMid meet">
<metadata>
Created by potrace 1.15, written by Peter Selinger 2001-2017
</metadata>
<g transform="translate(0.000000,2000.000000) scale(0.100000,-0.100000)"
fill="#000000" stroke="none">
<path d="M9725 19469 c-1947 -101 -3801 -788 -5327 -1977 -1117 -868 -2007
-1947 -2648 -3207 -1023 -2013 -1288 -4343 -745 -6560 318 -1297 935 -2553
1772 -3609 434 -546 967 -1081 1518 -1522 1386 -1109 3073 -1809 4840 -2008
391 -44 519 -51 1060 -51 542 0 654 5 1035 46 1688 182 3300 816 4647 1828
396 298 656 523 1019 886 414 413 700 747 1010 1180 990 1382 1587 2983 1738
4660 54 599 47 1353 -20 1935 -172 1514 -691 2931 -1535 4198 -606 908 -1376
1713 -2274 2377 -175 130 -545 376 -734 489 -1502 895 -3177 1354 -4915 1345
-155 -1 -353 -6 -441 -10z m165 -90 c0 -28 3 -31 23 -25 12 3 43 6 70 6 43 0
47 2 47 25 0 16 6 25 15 25 9 0 15 -9 15 -25 0 -24 2 -25 65 -25 l65 0 0 -698
0 -698 -35 -17 c-53 -25 -79 -84 -79 -182 -1 -98 20 -147 80 -187 36 -24 48
-27 87 -22 103 14 146 75 147 207 0 43 -6 92 -14 110 -17 43 -68 85 -111 93
l-35 6 0 694 0 694 65 0 c63 0 65 1 65 25 0 14 5 25 10 25 6 0 10 -11 10 -25
0 -23 4 -25 48 -25 26 0 57 -3 70 -6 19 -6 22 -3 22 25 0 21 5 31 15 31 10 0
15 -10 15 -30 l0 -30 64 0 c59 0 65 2 68 22 4 31 28 35 28 5 0 -30 16 -37 86
-37 51 0 54 1 54 25 0 16 6 25 16 25 12 0 15 -6 10 -24 -7 -30 7 -36 80 -36
51 0 54 1 54 25 0 16 6 25 15 25 10 0 15 -10 15 -30 0 -26 4 -30 28 -30 15 0
43 -3 64 -6 32 -6 37 -4 40 17 4 32 28 37 28 6 0 -29 12 -34 85 -39 45 -3 50
-1 53 20 2 12 10 22 18 22 10 0 13 -7 8 -24 -6 -27 -14 -24 101 -41 32 -5 35
-4 35 20 0 16 6 25 16 25 12 0 15 -6 10 -24 -7 -28 -1 -31 82 -41 51 -7 52 -6
52 19 0 17 5 26 16 26 12 0 15 -7 12 -29 -4 -28 -2 -30 41 -36 25 -3 56 -9 68
-12 17 -4 22 0 25 18 5 35 28 36 28 1 0 -28 3 -30 50 -36 28 -4 56 -9 64 -12
8 -3 16 4 20 20 9 35 26 33 26 -3 0 -26 4 -29 43 -35 23 -4 52 -9 63 -12 17
-4 23 0 28 20 9 37 34 34 28 -3 -4 -28 -2 -29 48 -40 69 -15 78 -14 85 9 9 29
31 24 30 -7 0 -23 6 -28 50 -40 68 -17 74 -17 81 12 8 31 27 21 21 -11 -3 -20
1 -25 22 -30 14 -3 39 -10 55 -15 42 -13 53 -11 59 11 8 30 30 25 25 -5 -5
-23 0 -26 45 -40 67 -20 84 -19 90 5 8 32 30 25 23 -7 -6 -27 -4 -29 54 -46
63 -18 80 -16 80 9 0 8 6 14 14 14 10 0 14 -9 13 -26 -2 -24 4 -29 48 -45 67
-23 74 -23 81 5 3 15 11 23 19 19 10 -3 11 -11 5 -28 -8 -22 -5 -25 52 -44 62
-21 78 -20 78 5 0 8 7 14 15 14 11 0 15 -8 13 -27 -3 -25 2 -29 59 -50 l61
-22 6 25 c9 35 30 31 23 -5 -6 -27 -3 -30 54 -50 60 -22 79 -21 79 5 0 8 7 14
15 14 11 0 13 -7 9 -28 -5 -27 -3 -30 53 -51 l58 -22 14 20 c19 30 34 26 26
-7 -5 -26 -2 -29 47 -50 66 -27 75 -27 83 -1 8 26 20 15 20 -18 0 -20 9 -29
55 -48 54 -24 55 -24 69 -5 20 29 34 24 27 -8 -6 -25 -3 -29 54 -54 l61 -27
11 24 c14 31 31 21 23 -13 -5 -25 -1 -29 54 -53 l60 -27 14 22 c18 26 33 15
18 -13 -10 -19 -6 -23 51 -52 34 -17 64 -27 65 -23 8 23 22 36 32 30 8 -5 8
-13 0 -27 -6 -12 -9 -22 -7 -23 2 -2 29 -17 60 -35 l58 -32 11 25 c7 14 17 22
25 19 11 -4 11 -9 -2 -28 -14 -22 -13 -24 40 -54 66 -37 67 -37 84 -11 16 27
36 16 22 -11 -15 -26 -7 -35 52 -65 l51 -26 17 22 c12 16 19 19 24 11 4 -7 2
-19 -5 -27 -15 -18 -5 -29 61 -67 45 -26 46 -26 58 -7 14 23 37 27 28 5 -3 -8
-8 -21 -11 -28 -3 -7 18 -26 51 -46 l57 -34 17 23 c12 16 19 19 25 10 4 -6 2
-17 -4 -23 -18 -18 -13 -26 45 -63 56 -36 56 -36 71 -15 18 26 38 18 23 -9
-14 -27 -15 -26 43 -65 l52 -35 17 21 c23 28 43 15 23 -15 -15 -22 -13 -24 41
-61 l56 -39 18 23 c21 28 37 12 18 -18 -7 -11 -10 -22 -8 -24 3 -2 28 -20 56
-40 l52 -37 14 22 c9 13 19 18 27 14 9 -6 8 -13 -5 -27 -10 -12 -14 -23 -8
-27 31 -28 93 -72 99 -72 4 0 13 7 20 17 7 9 17 13 24 9 9 -6 8 -13 -5 -27 -9
-11 -15 -21 -13 -22 2 -2 25 -20 50 -40 52 -42 57 -43 74 -20 7 9 17 13 24 9
9 -6 8 -13 -5 -27 -9 -11 -15 -20 -13 -22 2 -2 27 -22 55 -45 l52 -42 15 23
c11 16 18 19 26 11 9 -8 8 -14 -4 -24 -8 -7 -15 -16 -15 -20 0 -4 23 -26 51
-50 l51 -43 18 23 c12 16 19 19 25 11 4 -7 0 -20 -9 -30 -15 -16 -12 -21 38
-64 54 -47 55 -47 70 -26 8 12 19 18 26 14 8 -5 6 -13 -6 -26 -16 -18 -16 -20
7 -45 13 -14 37 -35 52 -46 26 -19 29 -19 47 -3 10 9 21 12 24 7 3 -5 -1 -15
-9 -22 -22 -19 -19 -24 35 -70 47 -40 52 -41 69 -26 23 21 36 8 14 -16 -16
-18 -14 -21 32 -68 l49 -50 21 20 c26 25 42 14 18 -12 -16 -18 -15 -21 30 -66
l47 -47 -642 -642 c-569 -569 -640 -643 -628 -658 12 -15 85 55 657 627 l643
643 45 -45 c43 -42 45 -43 64 -26 26 23 39 2 15 -25 -17 -19 -17 -21 28 -65
41 -42 47 -45 66 -33 27 17 40 4 19 -19 -16 -17 -14 -21 27 -68 41 -45 46 -48
66 -36 28 17 38 7 16 -17 -16 -17 -14 -21 30 -70 44 -49 47 -51 65 -35 25 23
37 10 14 -16 -17 -19 -16 -21 25 -70 23 -27 44 -50 48 -50 3 0 13 7 23 16 9 8
20 11 23 6 3 -5 -3 -17 -14 -27 -19 -17 -19 -19 27 -72 43 -50 47 -53 64 -37
10 9 23 13 29 9 6 -4 2 -13 -12 -25 l-22 -18 39 -48 c21 -27 40 -51 42 -54 2
-2 13 1 24 8 29 18 43 4 17 -17 l-22 -18 39 -49 c22 -27 41 -51 43 -54 1 -2
12 1 23 8 29 18 44 4 18 -17 l-22 -18 39 -51 c39 -53 52 -60 71 -41 6 6 16 8
22 4 8 -4 4 -13 -11 -24 l-22 -19 39 -56 c37 -54 39 -56 61 -41 29 19 40 4 14
-20 -18 -17 -18 -18 17 -71 23 -34 41 -53 50 -49 7 3 20 8 28 11 22 9 18 -14
-4 -28 -18 -11 -18 -14 16 -67 20 -31 37 -57 38 -59 2 -2 12 2 24 9 28 18 41
2 15 -19 l-21 -17 37 -57 c35 -54 38 -56 58 -42 16 11 22 11 28 2 4 -6 3 -13
-2 -15 -36 -13 -36 -21 0 -77 39 -61 39 -61 66 -46 27 14 36 -6 10 -22 -11 -7
-20 -16 -20 -20 0 -4 15 -32 33 -62 32 -53 34 -55 55 -41 16 12 22 12 28 3 4
-6 3 -13 -2 -15 -36 -13 -36 -20 -3 -81 31 -55 35 -59 56 -49 31 14 43 -2 16
-20 l-22 -15 29 -59 c31 -61 35 -65 60 -50 24 16 34 -1 11 -19 l-23 -16 28
-57 c30 -60 34 -63 64 -47 13 7 19 6 23 -4 3 -8 -5 -18 -19 -25 l-24 -11 30
-61 c24 -47 35 -59 48 -54 28 11 34 11 39 -2 2 -6 -5 -14 -16 -18 -27 -8 -26
-14 6 -79 23 -48 29 -53 49 -46 31 12 39 -1 12 -21 l-22 -17 28 -61 c26 -53
31 -59 49 -50 13 7 22 8 29 1 7 -7 2 -15 -15 -24 l-24 -13 25 -58 c24 -55 27
-58 54 -53 34 7 40 -18 7 -27 -23 -6 -22 -15 12 -95 16 -38 21 -42 38 -32 26
13 31 13 31 -4 0 -8 -9 -18 -21 -21 -11 -4 -18 -12 -16 -18 3 -7 13 -32 22
-57 23 -59 29 -64 53 -51 16 8 21 7 26 -4 3 -8 0 -15 -7 -15 -35 -1 -38 -16
-15 -79 21 -59 23 -61 50 -56 33 8 40 -14 8 -22 -25 -7 -25 -13 1 -84 20 -53
23 -57 44 -49 17 7 25 5 29 -6 3 -8 0 -14 -7 -14 -34 -1 -37 -15 -16 -79 21
-60 22 -62 50 -56 36 8 40 -11 5 -25 l-25 -9 21 -64 c20 -60 22 -63 49 -59 36
5 39 -15 4 -24 -19 -5 -24 -11 -20 -24 3 -9 11 -37 18 -61 12 -38 17 -44 39
-42 15 1 29 -5 32 -13 3 -9 -1 -14 -14 -14 -30 0 -32 -15 -14 -80 15 -55 19
-60 42 -58 14 2 27 -3 29 -9 3 -8 -4 -13 -16 -13 -29 0 -31 -9 -13 -77 16 -60
17 -62 45 -56 23 5 29 3 25 -8 -2 -8 -14 -15 -26 -17 -26 -4 -26 2 -6 -77 14
-56 19 -63 39 -62 31 3 37 -17 8 -21 -26 -4 -26 1 -10 -77 12 -57 14 -60 40
-57 19 3 27 -1 27 -12 0 -10 -9 -16 -25 -16 -15 0 -23 -5 -20 -12 2 -7 9 -39
15 -70 10 -51 14 -56 35 -55 30 2 34 -17 4 -21 -19 -3 -20 -8 -14 -50 12 -86
15 -92 40 -86 15 4 24 0 28 -10 5 -12 0 -16 -20 -16 -26 0 -26 0 -19 -62 9
-76 12 -81 42 -74 17 5 24 2 24 -8 0 -8 -10 -16 -22 -18 -25 -3 -25 -7 -13
-90 6 -45 8 -48 36 -48 35 0 38 -15 4 -24 -27 -7 -29 -15 -19 -90 6 -43 9 -46
36 -46 34 0 34 -23 0 -28 -24 -4 -27 -24 -16 -94 6 -34 10 -38 35 -38 19 0 29
-5 29 -15 0 -10 -10 -15 -28 -15 -26 0 -27 -2 -24 -47 5 -85 10 -96 37 -89 18
5 25 2 25 -9 0 -9 -9 -15 -25 -15 -28 0 -30 -11 -19 -93 6 -40 10 -46 33 -49
35 -4 33 -22 -3 -26 -27 -3 -28 -6 -22 -40 3 -20 6 -49 6 -64 0 -21 5 -27 27
-30 39 -4 42 -28 4 -28 -28 0 -31 -3 -31 -32 0 -18 3 -50 7 -71 5 -34 9 -38
29 -34 16 3 24 0 24 -9 0 -8 -11 -14 -25 -14 -24 0 -25 -2 -25 -70 l0 -70 30
0 c20 0 30 -5 30 -15 0 -10 -10 -15 -30 -15 l-30 0 0 -65 0 -65 -700 0 -699 0
24 46 c30 56 31 95 6 151 -23 50 -68 76 -129 75 -82 -1 -127 -57 -120 -149 5
-62 -7 -69 -49 -27 -22 22 -25 32 -20 72 2 26 8 55 12 65 6 14 1 17 -33 17
-39 0 -41 -2 -48 -35 -12 -66 0 -141 30 -179 l27 -36 -55 0 c-49 0 -56 -2 -56
-20 0 -20 7 -20 905 -20 l905 0 0 -65 0 -65 30 0 c20 0 30 -5 30 -15 0 -11 -8
-13 -30 -9 l-30 6 0 -71 c0 -69 1 -71 25 -71 16 0 25 -6 25 -15 0 -9 -9 -15
-24 -15 -25 0 -36 -28 -36 -95 0 -28 4 -33 31 -39 35 -7 30 -26 -7 -26 -19 0
-24 -5 -24 -24 0 -13 -3 -44 -6 -70 l-7 -46 31 0 c24 0 30 -4 25 -16 -4 -11
-13 -14 -29 -10 -19 5 -24 2 -24 -11 0 -10 -3 -42 -6 -70 -7 -52 -6 -53 20
-53 16 0 26 -5 26 -15 0 -9 -9 -15 -25 -15 -27 0 -32 -12 -37 -87 -3 -38 -1
-42 24 -47 37 -7 36 -26 -1 -26 -28 0 -29 -2 -36 -59 -8 -66 -3 -81 26 -81 10
0 19 -7 19 -15 0 -11 -7 -13 -29 -9 -27 6 -28 4 -35 -41 -11 -85 -9 -95 20
-95 16 0 24 -5 21 -12 -2 -7 -16 -12 -30 -11 -23 1 -26 -2 -32 -50 -3 -29 -9
-60 -11 -69 -4 -14 1 -18 20 -18 16 0 26 -6 26 -15 0 -9 -9 -15 -24 -15 -31 0
-32 -3 -41 -71 -7 -55 -6 -57 19 -63 32 -8 25 -26 -9 -26 -20 0 -25 -7 -34
-50 -15 -71 -14 -79 14 -86 30 -7 23 -24 -10 -24 -19 0 -26 -7 -30 -27 -4 -16
-10 -45 -14 -65 -8 -33 -6 -37 15 -42 33 -9 31 -32 -3 -31 -28 0 -32 -8 -47
-87 -6 -34 -5 -38 19 -44 34 -8 32 -24 -4 -24 -26 0 -30 -5 -40 -47 -7 -27
-14 -55 -17 -64 -3 -12 3 -19 21 -23 34 -9 32 -26 -4 -26 -26 0 -30 -5 -40
-47 -7 -27 -14 -55 -17 -64 -3 -12 3 -19 21 -23 35 -9 32 -29 -4 -24 -27 4
-29 2 -45 -54 -20 -73 -20 -75 4 -81 29 -8 24 -28 -6 -25 -24 3 -28 -2 -44
-56 -21 -65 -19 -76 11 -76 12 0 19 -5 16 -12 -2 -7 -16 -12 -30 -10 -22 2
-27 -3 -43 -50 -9 -29 -19 -58 -21 -64 -2 -6 7 -14 21 -18 36 -9 33 -29 -3
-24 -27 4 -29 1 -49 -59 l-21 -64 26 -10 c30 -11 22 -24 -14 -24 -22 0 -29 -8
-44 -50 -23 -65 -23 -72 1 -80 11 -3 20 -13 20 -20 0 -11 -6 -12 -25 -5 -24 9
-27 7 -44 -33 -34 -79 -35 -88 -12 -94 12 -3 21 -12 21 -20 0 -10 -6 -13 -17
-8 -10 3 -21 7 -26 8 -4 1 -19 -25 -32 -58 -25 -60 -25 -60 -5 -74 29 -19 25
-34 -7 -27 -26 6 -29 3 -50 -52 -28 -70 -28 -68 -3 -75 32 -8 24 -30 -8 -22
-27 5 -30 3 -55 -55 l-26 -61 24 -11 c30 -14 21 -32 -11 -24 -22 6 -27 1 -49
-46 -30 -65 -31 -75 -4 -83 14 -5 18 -10 11 -17 -6 -6 -17 -6 -30 1 -18 9 -22
4 -47 -51 l-27 -61 22 -17 c26 -20 12 -37 -18 -21 -16 8 -23 1 -50 -54 -30
-61 -30 -64 -12 -70 11 -4 20 -13 20 -21 0 -12 -4 -13 -22 -3 -24 13 -34 4
-70 -65 l-20 -40 21 -17 c24 -20 11 -36 -16 -20 -15 8 -23 0 -50 -47 -39 -68
-39 -69 -12 -77 11 -4 18 -12 16 -18 -5 -12 -11 -13 -38 -2 -13 5 -24 -8 -48
-52 l-32 -58 22 -16 c23 -17 13 -34 -11 -18 -24 14 -27 12 -61 -47 l-32 -57
23 -17 c27 -20 11 -37 -19 -21 -17 10 -24 4 -55 -46 l-36 -58 22 -17 c27 -20
19 -34 -10 -19 -28 15 -25 17 -61 -40 -30 -49 -35 -79 -11 -79 5 0 10 -7 10
-15 0 -17 -16 -20 -25 -5 -13 21 -34 8 -68 -45 -36 -54 -37 -54 -16 -69 12 -8
18 -19 14 -26 -5 -8 -13 -6 -26 6 -11 9 -20 15 -22 13 -2 -2 -20 -28 -41 -58
l-38 -54 22 -17 c16 -12 19 -19 11 -24 -7 -4 -19 -2 -27 5 -14 11 -20 8 -45
-21 -49 -61 -55 -78 -33 -94 25 -19 9 -34 -17 -17 -12 7 -22 11 -23 9 -2 -2
-19 -25 -39 -52 l-37 -49 20 -22 c25 -27 14 -40 -16 -20 -22 14 -24 12 -64
-37 l-40 -51 20 -22 c25 -27 16 -39 -15 -19 -22 14 -24 12 -65 -36 -41 -49
-42 -51 -25 -70 23 -25 14 -36 -15 -20 -20 11 -26 9 -47 -16 -55 -66 -57 -72
-38 -94 24 -26 12 -37 -18 -17 -22 14 -24 13 -65 -36 -40 -47 -42 -51 -26 -68
22 -24 10 -37 -18 -20 -20 12 -25 9 -64 -35 l-42 -49 20 -21 c25 -28 5 -44
-23 -18 -10 9 -20 15 -22 13 -1 -2 -22 -26 -47 -52 l-45 -48 24 -18 c17 -13
20 -20 12 -26 -7 -4 -21 1 -32 11 -12 10 -23 14 -28 8 -84 -93 -84 -94 -67
-113 21 -23 8 -36 -16 -14 -18 16 -21 14 -66 -30 l-47 -47 -640 640 c-511 511
-642 637 -653 628 -11 -9 114 -139 627 -652 l641 -641 -47 -47 c-45 -45 -46
-48 -30 -66 22 -24 9 -37 -15 -16 -17 16 -21 14 -65 -26 -27 -24 -50 -45 -52
-47 -2 -1 4 -12 14 -23 13 -14 15 -24 8 -31 -8 -8 -15 -4 -27 12 l-16 23 -50
-49 c-46 -45 -48 -50 -34 -66 24 -27 7 -45 -20 -21 l-21 20 -49 -42 c-44 -39
-47 -44 -35 -64 17 -27 4 -40 -19 -19 -16 15 -21 13 -69 -25 -50 -40 -51 -42
-36 -65 20 -30 9 -42 -17 -18 -19 17 -21 16 -70 -21 -56 -43 -54 -38 -39 -66
15 -27 3 -35 -20 -14 -19 18 -22 17 -71 -25 -48 -40 -49 -43 -36 -64 20 -30 8
-40 -18 -16 -21 20 -21 20 -74 -20 -52 -40 -53 -41 -38 -64 20 -30 5 -41 -19
-15 -17 19 -18 19 -63 -13 -25 -18 -50 -35 -55 -38 -5 -4 -4 -16 3 -29 16 -29
5 -38 -20 -15 -18 17 -21 16 -70 -20 -55 -41 -54 -39 -40 -65 14 -27 -5 -35
-23 -9 -15 20 -15 20 -68 -17 -30 -21 -55 -39 -57 -40 -2 -1 2 -11 9 -23 18
-28 0 -41 -18 -14 l-15 22 -54 -36 c-52 -34 -65 -55 -44 -68 14 -9 12 -25 -3
-25 -8 0 -18 9 -23 20 -9 18 -12 17 -67 -17 -38 -23 -56 -40 -53 -49 3 -8 9
-21 12 -29 9 -22 -13 -18 -29 6 -15 20 -15 20 -71 -16 -58 -37 -63 -44 -45
-62 6 -6 8 -17 4 -23 -6 -9 -13 -6 -25 10 l-17 23 -57 -32 c-59 -34 -61 -37
-47 -61 16 -24 -1 -34 -19 -10 l-17 22 -57 -32 c-43 -24 -56 -37 -51 -49 11
-27 10 -33 -2 -38 -6 -2 -14 5 -18 16 -8 27 -9 27 -76 -12 -51 -29 -55 -34
-46 -55 14 -32 -1 -41 -22 -13 l-18 23 -51 -26 c-60 -30 -67 -39 -52 -66 8
-16 8 -20 -4 -20 -8 0 -17 9 -21 20 -6 18 -9 18 -70 -12 -55 -27 -62 -34 -54
-50 16 -30 -1 -44 -21 -18 l-17 22 -61 -27 c-55 -25 -60 -29 -51 -47 8 -15 8
-23 0 -31 -9 -9 -13 -6 -17 11 -8 28 -17 28 -82 -3 -47 -22 -52 -27 -46 -49 8
-32 -10 -41 -24 -11 l-11 24 -61 -27 c-57 -25 -60 -29 -54 -54 7 -33 -15 -40
-23 -8 -7 25 -11 25 -79 -5 -51 -23 -56 -27 -50 -50 8 -30 -6 -33 -25 -6 -14
19 -15 19 -76 -6 -55 -22 -61 -27 -53 -43 6 -10 10 -21 10 -24 0 -9 -30 -7
-30 2 -1 28 -18 31 -70 11 -72 -27 -71 -26 -60 -54 7 -19 6 -25 -5 -25 -7 0
-17 9 -20 20 -8 25 -11 25 -80 -1 -51 -19 -56 -24 -51 -44 8 -33 -12 -42 -23
-11 l-10 25 -65 -22 c-62 -20 -65 -22 -59 -49 7 -34 -12 -38 -24 -5 l-8 23
-63 -18 c-58 -17 -62 -21 -60 -45 4 -34 -18 -41 -26 -9 l-6 24 -62 -17 c-58
-17 -63 -20 -60 -45 2 -18 -2 -26 -13 -26 -8 0 -15 9 -15 20 0 24 -4 24 -80 4
-57 -16 -59 -18 -53 -45 7 -37 -14 -39 -23 -3 -4 14 -12 23 -18 21 -6 -3 -36
-10 -67 -17 -56 -13 -57 -13 -49 -41 7 -22 5 -29 -6 -29 -7 0 -16 11 -20 25
-4 18 -11 24 -23 21 -9 -3 -37 -10 -63 -17 -43 -10 -48 -14 -48 -40 0 -36 -16
-38 -24 -4 -6 24 -10 25 -44 19 -79 -15 -87 -19 -87 -47 1 -34 -22 -36 -31 -3
-6 25 -5 25 -111 1 -16 -4 -23 -13 -23 -30 0 -34 -18 -41 -26 -9 -6 25 -9 26
-53 19 -72 -10 -81 -14 -81 -40 0 -34 -18 -41 -26 -9 -6 25 -8 26 -63 19 -68
-9 -71 -10 -71 -41 0 -15 -6 -24 -15 -24 -9 0 -15 10 -15 26 0 23 -3 25 -27
20 -16 -3 -47 -8 -70 -11 -40 -6 -42 -8 -36 -36 4 -22 2 -29 -11 -29 -10 0
-16 9 -16 25 0 28 -11 30 -95 19 -45 -7 -47 -8 -41 -35 4 -22 2 -29 -9 -29 -8
0 -15 9 -15 19 0 29 -15 34 -81 26 -57 -7 -59 -8 -59 -36 0 -37 -19 -38 -26
-1 -5 25 -9 27 -47 24 -75 -5 -87 -10 -87 -37 0 -16 -6 -25 -15 -25 -9 0 -15
9 -15 25 0 28 -4 29 -88 19 -48 -6 -52 -9 -50 -32 2 -14 -3 -27 -9 -29 -9 -3
-13 6 -13 27 0 32 -1 33 -37 26 -21 -3 -53 -6 -70 -6 -30 0 -33 -3 -33 -31 0
-38 -24 -35 -28 4 -4 29 -20 33 -94 21 -32 -6 -38 -11 -38 -30 0 -15 -6 -24
-15 -24 -9 0 -15 9 -15 25 0 24 -2 25 -70 25 l-70 0 0 -30 c0 -16 -4 -30 -10
-30 -5 0 -10 14 -10 30 l0 30 -65 0 -65 0 0 700 0 699 30 16 c94 49 105 279
17 349 -17 15 -38 31 -44 36 -17 14 -114 -2 -148 -24 -42 -28 -65 -89 -65
-179 0 -43 6 -92 14 -110 18 -45 70 -86 117 -93 l39 -7 0 -693 0 -694 -65 0
-65 0 0 -30 c0 -20 -5 -30 -15 -30 -10 0 -15 10 -15 30 l0 30 -70 0 c-68 0
-70 -1 -70 -25 0 -16 -6 -25 -15 -25 -11 0 -14 7 -9 24 5 21 2 24 -42 30 -87
11 -94 10 -94 -25 0 -38 -24 -35 -28 4 -3 22 -9 27 -30 27 -15 0 -43 3 -63 6
-34 6 -36 5 -42 -26 -8 -36 -27 -32 -27 6 0 16 -6 24 -17 24 -10 0 -42 3 -70
6 -52 7 -53 6 -53 -20 0 -17 -5 -26 -15 -26 -11 0 -14 7 -9 24 6 27 -3 30 -98
39 -36 3 -38 1 -38 -25 0 -18 -5 -28 -15 -28 -10 0 -15 10 -15 29 0 25 -4 29
-37 35 -71 11 -91 8 -95 -16 -5 -34 -28 -34 -28 0 0 29 -2 30 -59 37 -67 8
-81 3 -81 -26 0 -12 -5 -19 -12 -16 -7 2 -12 15 -10 30 3 24 0 26 -45 32 -84
12 -88 12 -91 -12 -2 -13 -10 -23 -18 -23 -10 0 -13 7 -8 24 7 30 2 33 -74 42
l-62 7 0 -28 c0 -17 -4 -25 -12 -22 -7 2 -12 16 -11 30 1 24 -3 27 -55 37 -31
6 -62 13 -69 15 -7 2 -13 -8 -15 -23 -4 -33 -24 -30 -21 3 1 21 -4 25 -55 35
-31 6 -63 13 -69 15 -8 3 -13 -5 -13 -20 0 -16 -6 -25 -16 -25 -11 0 -15 8
-12 27 3 26 0 28 -57 40 -78 16 -73 16 -77 -9 -2 -12 -9 -24 -17 -26 -11 -4
-13 2 -8 26 6 30 6 30 -58 46 -79 20 -73 20 -77 -6 -2 -12 -9 -24 -17 -26 -11
-4 -13 2 -8 25 6 28 4 29 -56 45 -68 18 -77 16 -77 -13 0 -11 -7 -19 -16 -19
-12 0 -14 7 -9 29 6 27 4 29 -55 45 -65 18 -80 16 -80 -14 0 -13 -5 -17 -14
-14 -8 3 -14 17 -13 31 2 22 -5 27 -58 44 -33 10 -61 19 -61 19 -1 0 -5 -11
-8 -25 -9 -35 -29 -32 -24 4 4 27 1 29 -59 49 l-64 21 -9 -25 c-14 -35 -33
-31 -25 5 6 28 5 29 -57 48 l-63 19 -9 -20 c-14 -29 -13 -29 -25 -22 -7 4 -7
15 -1 31 8 22 5 25 -52 44 -76 26 -74 26 -81 1 -8 -32 -30 -25 -23 8 6 25 3
28 -46 46 -29 10 -58 21 -65 23 -7 3 -15 -6 -18 -20 -5 -17 -12 -24 -21 -20
-10 4 -11 10 -3 25 13 24 8 30 -51 53 -25 9 -50 19 -57 22 -6 2 -14 -5 -18
-16 -3 -12 -13 -21 -22 -21 -10 0 -13 5 -8 17 3 10 7 22 8 26 3 11 -113 58
-124 51 -5 -3 -9 -12 -9 -20 0 -8 -7 -14 -15 -14 -11 0 -13 7 -9 28 5 26 2 30
-54 54 l-60 26 -11 -26 c-8 -17 -15 -22 -22 -15 -8 8 -8 17 -1 30 10 17 3 23
-52 50 l-63 32 -12 -25 c-14 -31 -34 -22 -22 10 8 21 4 25 -54 54 l-63 31 -6
-25 c-4 -14 -12 -23 -19 -21 -13 5 -13 11 -2 39 5 13 -7 24 -54 48 l-61 30
-11 -24 c-7 -14 -17 -22 -25 -19 -10 4 -11 10 -4 23 16 30 13 34 -47 64 l-57
28 -16 -23 c-18 -23 -35 -13 -19 11 15 25 11 29 -50 60 l-59 29 -15 -22 c-18
-27 -34 -15 -20 16 10 21 6 25 -50 56 -34 19 -62 30 -64 25 -8 -23 -22 -36
-32 -30 -8 5 -7 13 4 28 14 21 12 23 -41 55 -30 18 -58 33 -62 33 -4 0 -13 -9
-20 -20 -16 -26 -36 -17 -22 10 5 10 10 21 10 24 0 11 -114 79 -117 70 -8 -23
-22 -36 -32 -30 -8 5 -7 13 3 28 14 20 12 23 -42 58 l-57 37 -17 -21 c-21 -26
-37 -13 -19 15 7 12 11 22 9 24 -2 1 -28 18 -59 37 -53 34 -56 35 -67 17 -14
-23 -37 -26 -28 -4 3 8 8 21 11 28 4 9 -15 27 -49 50 -53 35 -54 35 -71 17
-24 -26 -39 -15 -20 14 15 22 13 24 -41 61 l-56 39 -19 -22 c-11 -15 -20 -19
-24 -11 -4 6 -2 16 4 22 20 20 12 34 -42 71 -51 36 -52 36 -68 17 -9 -11 -21
-16 -28 -12 -9 6 -8 11 4 21 24 20 18 33 -38 73 -51 37 -52 37 -68 18 -9 -11
-21 -16 -28 -12 -9 6 -8 11 4 21 24 20 18 32 -37 74 l-51 40 -18 -22 c-11 -14
-20 -18 -24 -12 -4 6 0 19 9 29 15 17 13 21 -33 59 -55 46 -63 49 -81 27 -7
-8 -17 -12 -22 -9 -5 3 -2 14 8 25 11 12 14 23 8 28 -95 86 -93 85 -114 66
-26 -23 -39 -11 -16 14 16 18 15 21 -36 65 -49 43 -53 44 -70 29 -23 -21 -33
-11 -16 16 12 20 9 25 -37 66 -46 40 -51 42 -68 28 -22 -21 -35 -8 -18 19 12
19 9 25 -33 66 -44 45 -46 45 -65 28 -27 -24 -48 -11 -25 15 17 19 16 21 -26
64 l-45 45 640 640 c569 569 638 641 625 655 -14 13 -86 -56 -655 -625 l-640
-640 -47 47 c-45 44 -48 46 -66 30 -26 -24 -37 -8 -12 18 l20 21 -50 49 c-47
46 -50 48 -68 32 -24 -22 -37 -9 -16 14 15 17 14 22 -26 69 -46 54 -51 57 -70
35 -7 -8 -17 -12 -22 -9 -5 3 -2 14 7 24 16 18 16 21 -3 47 -11 15 -32 39 -46
52 -25 23 -27 23 -45 7 -14 -13 -21 -14 -26 -5 -5 7 -1 16 9 21 24 13 20 25
-25 80 -39 46 -43 48 -60 32 -10 -9 -23 -13 -30 -9 -8 6 -5 13 11 25 l23 18
-43 51 c-24 28 -46 51 -50 51 -4 0 -13 -7 -20 -15 -10 -12 -16 -13 -24 -4 -8
8 -5 15 11 26 25 17 27 13 -40 92 -26 32 -29 33 -46 17 -14 -13 -21 -14 -27
-5 -4 7 0 17 9 24 23 17 22 22 -20 74 -20 25 -38 48 -40 50 -1 2 -11 -4 -22
-13 -14 -13 -21 -14 -27 -5 -4 7 0 17 9 24 10 7 17 16 17 20 0 6 -44 68 -72
99 -4 6 -15 2 -27 -8 -14 -13 -21 -14 -27 -5 -4 8 1 18 14 27 l22 14 -37 52
c-20 28 -38 53 -40 56 -2 2 -13 -1 -24 -8 -30 -19 -47 -3 -19 18 l22 17 -37
57 c-37 55 -39 56 -61 41 -30 -20 -43 0 -15 23 l21 17 -35 53 c-39 57 -38 56
-65 42 -27 -14 -35 5 -10 23 21 15 21 15 -15 71 -37 58 -44 63 -62 45 -6 -6
-17 -8 -23 -4 -9 6 -6 13 10 25 l24 18 -34 53 c-19 30 -35 55 -36 57 -1 2 -12
-2 -24 -8 -30 -16 -40 -2 -13 19 l21 18 -30 49 c-41 66 -45 69 -62 55 -8 -7
-20 -9 -27 -5 -8 5 -5 12 11 24 l22 17 -20 39 c-36 69 -46 78 -70 65 -28 -15
-39 4 -12 21 11 7 20 15 20 19 0 3 -14 31 -31 63 -30 56 -32 57 -54 42 -19
-12 -24 -13 -28 -2 -3 8 5 18 18 24 l24 11 -31 58 c-17 32 -32 59 -34 61 -1 2
-11 -1 -23 -7 -14 -8 -22 -8 -27 1 -4 6 -3 13 2 15 35 13 36 20 5 82 -29 56
-33 60 -52 50 -28 -15 -39 0 -13 18 l22 14 -27 60 c-24 55 -28 59 -53 54 -34
-8 -44 9 -13 23 l24 11 -26 58 c-32 72 -28 68 -58 55 -21 -10 -25 -9 -25 4 0
9 9 18 20 21 23 6 22 14 -12 90 -17 39 -23 44 -43 39 -29 -7 -43 10 -15 19 25
8 25 20 -2 84 -20 49 -23 52 -50 46 -33 -8 -37 7 -7 26 l20 14 -22 58 c-21 56
-24 58 -51 53 -21 -4 -28 -2 -28 9 0 8 6 15 14 15 26 0 27 19 5 80 -17 47 -26
60 -38 55 -27 -11 -33 -10 -38 2 -2 7 7 15 20 18 l25 7 -21 64 c-20 62 -22 64
-49 59 -33 -8 -37 7 -8 26 l21 14 -21 62 c-20 58 -23 61 -45 53 -17 -6 -25 -5
-28 5 -4 8 4 16 19 19 28 7 28 14 5 81 -16 44 -21 50 -45 48 -17 -1 -26 3 -26
13 0 8 6 14 14 14 25 0 27 17 9 80 -17 58 -19 60 -46 54 -32 -7 -39 15 -7 23
24 6 25 23 5 90 -13 45 -18 50 -39 46 -33 -7 -43 15 -11 23 30 7 30 8 9 83
-15 51 -19 57 -39 53 -31 -6 -41 14 -10 22 29 7 29 13 12 81 -12 44 -17 50
-40 50 -31 -1 -36 21 -7 30 23 7 24 16 8 85 -11 49 -13 51 -40 48 -19 -3 -28
0 -28 9 0 7 6 13 13 13 31 1 35 14 23 75 -11 56 -14 60 -39 60 -34 -1 -36 22
-2 31 19 5 24 11 20 28 -3 11 -9 39 -13 61 -7 34 -12 40 -35 43 -33 4 -31 25
2 30 13 2 21 9 18 16 -3 7 -8 37 -12 68 -7 53 -7 54 -36 50 -22 -3 -29 0 -29
12 0 11 9 16 26 16 25 0 26 1 19 53 -10 80 -12 85 -40 79 -18 -3 -25 0 -25 12
0 11 9 16 26 16 23 0 25 3 20 27 -3 16 -8 47 -11 71 -6 39 -9 43 -30 38 -15
-4 -25 -1 -28 8 -4 10 2 16 21 18 25 3 27 6 24 43 -6 79 -12 95 -38 95 -32 0
-31 18 2 26 23 6 25 10 20 37 -3 16 -6 45 -6 63 0 31 -3 34 -30 34 -20 0 -30
5 -30 15 0 9 9 15 25 15 24 0 25 3 25 54 0 73 -6 87 -36 80 -18 -5 -24 -2 -24
10 0 10 9 16 25 16 24 0 25 3 25 54 0 70 -7 86 -37 86 -30 0 -26 24 5 28 20 3
22 9 22 68 l0 64 -30 0 c-20 0 -30 5 -30 15 0 10 10 15 31 15 24 0 30 3 25 16
-3 9 -6 41 -6 71 0 54 -1 55 -25 49 -18 -5 -25 -2 -25 9 0 9 9 15 25 15 24 0
25 2 25 65 l0 65 695 0 c382 0 695 -1 695 -3 0 -1 -9 -20 -20 -42 -24 -47 -25
-82 -4 -135 22 -55 63 -82 124 -83 88 -1 136 54 128 150 -5 62 7 69 49 27 22
-22 25 -32 20 -72 -2 -26 -8 -55 -12 -64 -6 -15 -1 -18 33 -18 39 0 41 2 48
35 11 60 0 139 -25 173 l-22 32 50 0 c44 0 51 3 51 20 0 24 111 21 -1017 20
l-793 -1 0 66 c0 63 -1 65 -25 65 -16 0 -25 6 -25 15 0 9 9 15 25 15 24 0 25
3 25 54 0 30 3 61 6 70 5 13 -1 16 -25 16 -21 0 -31 5 -31 15 0 11 8 13 30 9
l30 -6 0 71 c0 69 -1 71 -25 71 -16 0 -25 6 -25 15 0 9 9 15 24 15 29 0 36 16
36 80 0 42 -3 49 -22 52 -31 4 -35 28 -5 28 30 0 37 16 37 86 0 51 -1 54 -25
54 -15 0 -25 6 -25 15 0 11 8 13 30 9 29 -6 30 -5 30 27 0 19 3 51 6 72 6 35
5 37 -20 37 -16 0 -26 5 -26 15 0 9 9 15 25 15 26 0 30 8 38 87 4 36 2 42 -16
45 -31 5 -34 28 -3 28 21 0 26 6 31 38 3 20 8 49 10 64 4 23 0 29 -20 34 -33
8 -33 33 0 27 27 -6 33 8 37 87 3 40 0 45 -19 48 -13 2 -23 10 -23 18 0 12 7
14 29 9 28 -6 29 -6 36 51 4 31 9 63 12 71 3 9 -3 13 -21 13 -17 0 -26 5 -26
16 0 12 6 15 24 10 26 -6 29 -3 41 64 4 19 9 43 11 53 4 13 -1 17 -20 17 -17
0 -26 6 -26 16 0 11 8 15 27 12 26 -3 28 0 40 57 16 78 16 73 -9 77 -12 2 -24
9 -26 17 -4 11 2 13 25 8 30 -6 31 -5 42 50 15 76 14 83 -9 83 -12 0 -20 7
-20 16 0 12 6 15 25 10 21 -5 25 -2 34 32 25 91 25 100 0 104 -31 4 -25 24 6
21 20 -1 26 5 34 35 25 94 25 93 2 99 -31 8 -27 32 5 30 24 -2 28 3 44 61 l17
62 -23 6 c-35 9 -31 35 4 28 27 -6 29 -4 46 57 17 64 13 78 -21 79 -7 0 -10 6
-7 14 4 11 12 13 29 6 22 -8 25 -5 44 52 21 62 20 78 -5 78 -8 0 -14 7 -14 15
0 11 8 15 26 13 24 -3 29 3 45 47 23 65 23 72 -1 80 -11 3 -20 13 -20 20 0 11
6 12 25 5 19 -7 27 -6 30 3 2 6 13 36 24 65 l19 53 -24 10 c-31 11 -22 31 10
23 20 -5 25 1 44 51 27 69 27 72 2 80 -31 10 -24 28 8 22 26 -5 29 -2 51 55
19 50 21 62 10 69 -8 5 -17 9 -21 9 -5 0 -8 7 -8 16 0 10 5 14 15 10 8 -3 21
-8 28 -11 8 -3 21 17 36 56 l24 62 -23 17 c-26 20 -11 37 18 21 17 -9 22 -3
45 51 27 62 27 78 1 78 -8 0 -14 7 -14 15 0 18 5 18 31 4 18 -9 23 -4 49 53
27 61 28 63 9 72 -10 5 -19 15 -19 23 0 16 5 16 31 3 17 -10 23 -4 49 52 29
62 30 63 10 72 -11 5 -20 15 -20 23 0 10 5 11 19 3 11 -5 22 -10 25 -10 3 0
19 27 36 60 29 58 30 60 10 70 -30 16 -25 33 8 25 27 -5 31 -2 61 54 30 57 31
60 11 66 -11 3 -20 13 -20 21 0 17 5 17 30 4 16 -9 23 -2 49 44 37 63 38 73
10 81 -14 5 -18 10 -11 17 6 6 17 6 30 -1 18 -10 24 -5 51 46 36 67 37 70 12
78 -13 4 -18 12 -14 21 5 13 8 13 28 0 23 -15 24 -14 55 40 30 53 33 84 10 84
-5 0 -10 7 -10 15 0 17 16 20 25 5 13 -21 32 -8 64 45 l34 56 -22 15 c-29 21
-16 40 14 20 22 -14 24 -13 59 42 35 57 35 57 15 74 -28 24 -15 42 15 22 23
-15 25 -14 59 43 l36 58 -21 16 c-15 12 -17 18 -8 24 6 4 17 2 23 -4 18 -18
25 -13 64 45 33 50 35 57 20 65 -9 6 -17 17 -17 26 0 14 2 14 24 -1 24 -15 25
-15 65 41 l40 56 -21 17 c-26 20 -9 35 18 16 16 -12 22 -9 57 41 38 52 38 55
21 74 -21 23 -13 35 14 20 29 -15 26 -17 67 39 36 49 37 52 20 70 -23 25 -14
35 16 19 20 -10 25 -8 47 17 54 66 56 73 37 94 -23 26 -12 37 17 18 21 -14 24
-13 65 36 42 51 42 51 22 72 -24 26 -13 39 17 19 22 -14 25 -12 63 32 46 51
47 55 26 73 -8 7 -15 16 -15 21 0 14 21 11 39 -5 14 -12 21 -8 60 35 41 48 43
51 26 69 -24 26 -9 47 16 24 19 -17 21 -16 66 29 46 45 46 47 29 66 -24 27
-11 48 15 25 19 -17 21 -16 69 31 l50 49 -21 22 c-11 12 -16 25 -11 28 5 3 18
-4 27 -15 19 -19 19 -19 67 28 l48 48 641 -641 c514 -514 642 -637 651 -626 9
11 -115 140 -628 653 l-639 639 48 48 c47 48 47 48 28 67 -11 9 -18 22 -15 27
3 5 16 0 28 -11 l22 -21 49 50 c47 48 48 50 31 69 -13 14 -14 21 -5 27 7 4 17
0 24 -9 18 -25 26 -22 75 28 42 43 43 45 26 64 -23 25 -2 39 24 16 18 -17 21
-15 69 26 43 39 47 46 35 60 -15 16 -19 39 -7 39 3 0 15 -7 25 -17 20 -18 19
-18 90 45 25 23 26 26 12 47 -19 29 -3 41 21 15 17 -19 18 -18 70 23 50 40 51
43 37 65 -19 29 -8 40 18 17 22 -19 28 -17 94 38 25 21 27 27 16 47 -16 29 -5
38 20 15 19 -17 21 -16 70 21 56 43 54 38 39 66 -15 27 -3 35 20 14 19 -17 22
-17 74 21 50 35 53 41 41 57 -19 27 -4 44 16 18 l17 -21 56 40 c56 40 56 41
41 65 -15 22 -15 24 -1 24 9 0 20 -8 26 -17 8 -15 15 -13 65 20 58 39 63 46
45 64 -6 6 -8 17 -4 23 6 9 13 6 25 -10 l17 -22 57 37 c55 37 56 39 41 61 -19
30 -1 43 23 15 17 -20 17 -20 74 15 55 35 56 37 42 59 -20 30 -1 43 20 14 l15
-22 56 34 c53 32 66 51 45 64 -14 9 -12 25 3 25 7 0 18 -9 25 -20 12 -19 13
-19 65 12 28 17 54 33 56 35 2 1 -1 14 -7 28 -10 21 -9 25 4 25 8 0 17 -7 20
-15 8 -21 17 -19 80 16 53 30 54 32 40 54 -13 20 -13 24 -1 29 8 3 17 -3 20
-15 8 -26 21 -24 83 11 45 27 51 33 42 50 -13 25 -13 30 4 30 8 0 17 -9 21
-20 6 -19 8 -19 66 11 57 28 60 31 54 59 -8 34 9 41 25 11 10 -19 12 -19 70 6
63 27 66 32 50 64 -8 15 -7 19 5 19 8 0 15 -3 15 -7 0 -5 4 -14 9 -21 6 -11
21 -7 70 17 54 28 60 34 51 51 -13 25 -13 30 3 30 8 0 18 -9 23 -20 9 -20 10
-19 72 10 56 26 62 32 52 49 -13 26 -13 31 5 31 8 0 15 -6 15 -14 0 -26 16
-26 78 1 54 23 60 28 51 45 -16 29 1 44 21 18 l17 -23 62 24 c39 15 59 28 56
36 -3 7 -8 20 -11 28 -4 10 0 15 10 15 9 0 16 -6 16 -14 0 -27 20 -28 80 -5
55 22 58 25 53 51 -6 32 12 39 22 8 8 -25 11 -25 80 2 50 19 56 24 51 44 -4
13 -1 26 5 29 6 4 13 -2 16 -14 6 -25 22 -25 88 -1 50 18 52 20 40 53 -5 12
-2 17 8 17 9 0 19 -9 22 -20 7 -21 20 -21 95 5 29 10 35 17 32 39 -3 30 17 36
25 6 7 -25 5 -25 81 1 57 19 60 22 52 44 -7 17 -5 25 6 29 8 3 14 0 14 -7 1
-34 15 -38 79 -21 61 17 63 19 57 46 -7 35 19 39 28 4 l6 -23 62 17 c58 16 63
19 60 44 -2 18 2 26 13 26 9 0 15 -9 15 -21 0 -19 4 -21 32 -15 91 18 107 26
105 51 -3 31 17 37 21 6 4 -25 13 -25 103 -1 32 9 36 13 31 35 -3 18 0 25 12
25 9 0 16 -8 16 -20 0 -23 7 -24 83 -9 55 11 56 12 50 42 -5 23 -3 29 8 25 8
-2 15 -14 17 -26 4 -25 -1 -25 77 -9 57 12 60 14 57 40 -3 19 1 27 12 27 10 0
16 -9 16 -25 0 -22 3 -24 33 -19 104 20 102 19 99 47 -2 19 2 27 13 27 10 0
15 -9 15 -26 0 -22 4 -25 23 -21 12 3 44 9 70 12 47 7 48 8 42 36 -5 22 -3 29
9 29 11 0 16 -9 16 -26 0 -26 0 -26 63 -19 76 9 80 11 74 41 -6 33 19 31 27
-2 6 -21 11 -25 34 -20 15 2 44 7 65 11 31 5 37 10 37 31 0 31 23 28 28 -3 3
-18 9 -20 45 -16 79 8 87 12 87 38 0 16 6 25 15 25 10 0 15 -10 15 -26 0 -25
2 -26 38 -20 20 3 52 6 70 6 32 0 33 1 27 30 -5 23 -3 30 9 30 10 0 16 -9 16
-25 0 -24 3 -25 54 -25 70 0 86 7 86 37 0 30 24 26 28 -5 3 -19 10 -22 52 -22
64 0 80 7 80 36 0 15 6 24 15 24 9 0 15 -9 15 -25 0 -24 2 -25 71 -25 l72 0
-6 30 c-5 22 -3 30 8 30 10 0 15 -10 15 -31z m300 -17129 c0 -121 -1 -130 -19
-130 -30 0 -43 25 -48 94 -9 103 11 166 53 166 11 0 14 -24 14 -130z"/>
<path d="M9101 17902 c-61 -31 -76 -62 -76 -160 0 -73 4 -95 25 -137 32 -64
78 -95 139 -95 105 0 166 73 158 191 -5 86 -43 171 -89 199 -41 25 -111 26
-157 2z m84 -58 c24 -10 43 -55 55 -131 12 -79 3 -117 -29 -126 -34 -9 -61 23
-77 88 -21 91 -19 141 8 159 26 19 22 18 43 10z"/>
<path d="M11407 17883 c-3 -5 -8 -23 -12 -40 l-7 -33 47 0 c44 0 47 -2 42 -22
-3 -13 -13 -65 -23 -116 l-16 -94 -43 6 c-46 7 -55 -1 -55 -48 0 -20 10 -23
131 -45 72 -12 132 -21 134 -19 3 2 6 19 7 38 3 32 1 35 -35 41 -20 3 -39 8
-41 10 -1 2 7 58 20 124 13 66 26 136 30 156 l6 36 -53 6 c-72 9 -127 9 -132
0z"/>
<path d="M8780 17853 c-14 -2 -51 -13 -83 -25 -57 -20 -58 -21 -51 -52 9 -41
9 -42 50 -27 20 7 38 10 41 7 9 -8 43 -210 38 -223 -2 -7 -15 -13 -29 -13 -44
0 -52 -8 -48 -45 2 -19 9 -35 16 -35 25 0 251 43 257 49 4 3 5 20 2 38 -5 32
-6 32 -52 26 l-47 -5 -25 153 c-14 84 -29 154 -35 154 -5 1 -20 0 -34 -2z"/>
<path d="M11836 17820 c-74 -22 -118 -101 -124 -220 -3 -77 -2 -88 20 -119 64
-93 191 -94 260 -1 23 32 48 121 48 175 0 53 -37 125 -75 146 -39 22 -93 29
-129 19z m80 -84 c15 -12 19 -25 17 -69 -2 -68 -20 -136 -40 -159 -20 -22 -56
-23 -73 -3 -17 20 -7 138 15 191 23 55 45 66 81 40z"/>
<path d="M7758 17620 c-109 -33 -146 -121 -104 -247 40 -119 121 -178 208
-154 81 23 118 71 118 151 0 109 -70 228 -148 250 -42 11 -38 11 -74 0z m56
-93 c23 -23 57 -103 70 -164 6 -25 3 -36 -13 -52 -28 -28 -38 -26 -70 8 -25
27 -71 141 -71 176 0 17 35 55 50 55 6 0 21 -10 34 -23z"/>
<path d="M12675 17544 c-8 -20 -15 -38 -15 -40 0 -2 23 -4 51 -4 73 0 109 -22
109 -67 0 -30 -35 -55 -145 -99 -85 -35 -96 -42 -106 -72 -6 -18 -9 -35 -6
-38 2 -3 61 -27 131 -53 l127 -49 10 25 c15 41 11 50 -33 66 -24 9 -56 21 -73
27 -30 11 -30 12 55 46 109 45 141 76 147 141 5 47 3 50 -35 85 -41 37 -120
68 -174 68 -22 0 -31 -7 -43 -36z"/>
<path d="M10190 16595 c0 -918 0 -925 20 -925 20 0 20 7 20 925 0 918 0 925
-20 925 -20 0 -20 -7 -20 -925z"/>
<path d="M7352 17470 c-61 -27 -102 -59 -97 -73 2 -7 9 -25 15 -41 l11 -29 27
25 c36 34 65 48 99 48 68 0 69 -42 2 -179 -46 -97 -49 -107 -38 -135 7 -17 13
-32 14 -34 3 -3 248 89 258 97 7 7 -10 71 -19 71 -2 0 -34 -11 -70 -25 -37
-14 -69 -24 -71 -21 -2 2 15 41 37 87 52 109 52 146 -3 207 -27 29 -104 30
-165 2z"/>
<path d="M13075 17411 c-16 -10 -40 -29 -52 -42 -62 -69 -89 -220 -47 -275 35
-47 70 -67 126 -72 46 -3 58 0 93 25 83 61 130 224 87 303 -36 68 -145 100
-207 61z m113 -73 c27 -27 -2 -152 -49 -212 -36 -46 -89 -29 -89 29 0 32 37
128 64 170 18 27 54 33 74 13z"/>
<path d="M6495 17089 c-41 -11 -91 -62 -105 -105 -31 -94 76 -271 174 -290
100 -18 193 67 182 168 -9 89 -81 195 -153 224 -36 16 -54 16 -98 3z m82 -113
c29 -32 64 -98 78 -143 6 -22 -23 -63 -44 -63 -36 0 -131 139 -131 192 0 56
54 64 97 14z"/>
<path d="M14006 16959 c-10 -17 -16 -32 -14 -33 1 -1 24 -10 49 -20 57 -21 83
-47 74 -75 -8 -25 -47 -28 -85 -6 -35 20 -37 19 -56 -17 -13 -25 -14 -33 -4
-36 7 -3 26 -17 43 -32 25 -22 29 -32 23 -54 -13 -54 -69 -46 -134 19 l-43 44
-20 -32 c-10 -18 -19 -35 -19 -38 0 -14 84 -82 124 -100 50 -23 114 -24 144
-3 44 31 65 101 42 145 -9 16 -7 19 10 19 35 0 61 19 77 57 13 33 13 40 -3 75
-13 30 -32 47 -78 72 -90 50 -108 52 -130 15z"/>
<path d="M6140 16879 c-30 -16 -66 -40 -78 -53 -23 -22 -23 -25 -8 -55 16 -30
36 -42 36 -21 0 16 73 60 102 60 55 0 37 -76 -24 -95 -17 -6 -17 -8 -2 -38 9
-18 18 -33 19 -35 1 -1 23 7 48 18 60 27 90 15 85 -33 -4 -38 -49 -72 -108
-82 -22 -4 -40 -9 -40 -12 0 -3 8 -18 18 -35 15 -26 21 -29 51 -24 81 13 191
107 191 164 0 61 -56 122 -112 122 -17 0 -19 3 -10 12 23 23 14 77 -17 109
-39 38 -80 38 -151 -2z"/>
<path d="M14315 16751 c-77 -46 -140 -163 -133 -242 11 -106 126 -169 224
-123 102 49 173 236 118 311 -52 71 -144 94 -209 54z m123 -73 c29 -29 -6
-128 -71 -195 -35 -38 -57 -41 -81 -14 -21 23 -17 41 27 124 44 84 93 117 125
85z"/>
<path d="M5325 16334 c-122 -63 -127 -185 -14 -303 42 -44 107 -80 143 -81 36
0 107 42 131 78 45 66 27 151 -49 239 -64 73 -148 100 -211 67z m99 -104 c44
-39 96 -117 96 -145 0 -45 -41 -58 -87 -28 -36 24 -113 130 -113 157 0 53 52
61 104 16z"/>
<path d="M15128 16142 c-97 -28 -134 -44 -158 -66 -16 -17 -30 -35 -29 -40 0
-6 29 -35 65 -64 l64 -53 -20 -26 -21 -26 28 -29 c32 -34 40 -34 70 -6 22 21
23 21 43 3 21 -19 21 -19 45 10 24 30 24 30 5 47 -11 9 -20 19 -20 23 0 4 34
46 75 95 41 49 75 92 75 98 0 8 -84 73 -92 71 -1 0 -60 -17 -130 -37z"/>
<path d="M5037 16094 l-38 -35 16 -142 c13 -118 19 -145 37 -166 13 -14 26
-30 30 -35 4 -5 36 17 73 49 l66 58 27 -26 28 -27 32 33 33 34 -20 24 c-19 24
-19 24 1 47 l21 22 -23 25 c-22 23 -25 24 -46 10 -13 -8 -25 -15 -27 -15 -2 0
-36 41 -77 90 -41 50 -79 90 -84 90 -6 0 -28 -16 -49 -36z"/>
<path d="M15395 15964 c-77 -40 -155 -152 -155 -224 0 -72 79 -150 152 -150
102 0 228 133 228 241 0 110 -126 185 -225 133z m116 -74 c28 -15 24 -60 -10
-106 -34 -46 -89 -99 -112 -107 -22 -7 -59 19 -59 42 0 26 51 101 98 144 45
40 53 42 83 27z"/>
<path d="M10190 14710 c0 -923 0 -930 20 -930 20 0 20 7 20 930 0 923 0 930
-20 930 -20 0 -20 -7 -20 -930z"/>
<path d="M4303 15409 c-33 -21 -65 -65 -77 -106 -28 -90 128 -253 242 -253 69
0 139 65 149 139 19 140 -200 293 -314 220z m99 -85 c56 -29 128 -104 128
-133 0 -81 -81 -61 -184 45 -69 71 -30 133 56 88z"/>
<path d="M4888 15322 c-17 -20 1296 -1332 1314 -1314 10 10 -121 146 -645 670
-529 530 -660 655 -669 644z"/>
<path d="M14851 14676 c-581 -581 -653 -656 -641 -671 12 -15 87 57 671 641
508 507 656 661 647 671 -6 7 -13 13 -17 13 -3 0 -300 -294 -660 -654z"/>
<path d="M16097 15224 l-77 -66 45 -42 c35 -33 45 -49 45 -74 0 -32 -29 -62
-61 -62 -28 0 -68 47 -81 94 -7 25 -15 46 -18 46 -3 0 -18 -11 -34 -23 -27
-22 -28 -26 -17 -58 32 -93 121 -167 188 -156 46 8 79 30 103 70 34 55 25 113
-26 168 -24 25 -24 26 -4 44 24 21 32 16 86 -55 l37 -49 29 20 c15 11 28 25
28 30 0 13 -139 174 -153 176 -7 1 -47 -27 -90 -63z"/>
<path d="M4022 15070 c-39 -49 -72 -92 -72 -94 0 -2 38 -36 84 -74 l84 -71 24
47 c13 26 36 54 51 62 24 13 30 13 55 0 30 -17 40 -56 22 -90 -6 -11 -33 -33
-60 -48 l-50 -29 29 -27 30 -28 33 20 c113 70 155 182 97 256 -60 76 -160 73
-223 -6 l-25 -33 -20 20 -20 20 50 60 51 59 -26 23 c-15 13 -30 23 -34 23 -4
0 -40 -40 -80 -90z"/>
<path d="M16325 14946 c-60 -28 -137 -108 -154 -159 -31 -92 47 -197 144 -197
118 1 256 138 242 241 -10 75 -82 139 -154 139 -15 0 -50 -11 -78 -24z m133
-78 c33 -33 -7 -99 -95 -157 -49 -33 -81 -39 -101 -19 -31 31 -5 79 80 143 61
45 94 55 116 33z"/>
<path d="M3465 14277 c-55 -55 -66 -100 -39 -165 32 -78 151 -152 243 -152 63
0 129 57 147 128 27 101 -115 232 -252 232 -53 0 -59 -2 -99 -43z m183 -89
c70 -42 98 -78 83 -106 -6 -11 -20 -23 -31 -27 -38 -12 -192 75 -203 114 -2
11 2 29 10 41 21 29 66 22 141 -22z"/>
<path d="M16910 14141 c-71 -22 -148 -80 -176 -133 -40 -76 13 -189 103 -219
48 -15 117 11 144 55 34 56 18 142 -35 184 l-27 21 36 7 c50 9 85 -18 109 -85
l19 -51 31 18 c39 23 37 53 -5 123 -45 72 -122 103 -199 80z"/>
<path d="M3295 13986 c-58 -58 -79 -143 -51 -209 30 -73 149 -147 236 -147 75
0 150 83 150 167 0 33 -7 50 -30 77 -34 39 -88 61 -125 52 -40 -10 -94 -65
-107 -108 l-12 -40 -23 26 c-13 15 -23 36 -23 47 0 27 23 69 54 98 l26 24 -30
19 c-38 23 -36 23 -65 -6z"/>
<path d="M6222 13988 c-9 -11 121 -146 647 -672 526 -526 660 -655 669 -644 9
11 -121 146 -647 672 -526 526 -660 655 -669 644z"/>
<path d="M13521 13346 c-581 -581 -653 -656 -641 -671 12 -15 87 57 671 641
508 507 656 661 647 671 -6 7 -13 13 -17 13 -3 0 -300 -294 -660 -654z"/>
<path d="M17050 13795 c-124 -59 -175 -147 -136 -238 49 -114 182 -127 311
-29 66 50 94 113 76 172 -7 23 -27 58 -45 78 -30 32 -39 36 -92 39 -48 3 -69
-1 -114 -22z m158 -77 c7 -7 12 -24 12 -39 0 -31 -41 -67 -122 -104 -64 -30
-80 -31 -102 -6 -33 36 -1 78 98 130 62 33 95 38 114 19z"/>
<path d="M10190 12831 c0 -925 0 -931 20 -931 20 0 20 5 18 927 -3 874 -4 928
-20 931 -17 3 -18 -46 -18 -927z"/>
<path d="M2872 13074 c-58 -30 -98 -113 -85 -177 10 -52 81 -112 158 -136 75
-24 111 -26 152 -10 65 24 111 107 99 174 -21 108 -222 201 -324 149z m136
-106 c98 -34 133 -76 95 -113 -23 -23 -88 -14 -169 24 -66 31 -82 56 -57 90
18 27 52 27 131 -1z"/>
<path d="M17542 12960 l-22 -9 30 -82 c16 -46 28 -84 26 -86 -2 -3 -77 1 -165
8 -89 7 -164 10 -167 7 -3 -4 0 -24 7 -47 14 -48 5 -45 221 -62 132 -10 218
-7 218 7 0 3 -21 66 -47 140 -49 139 -53 143 -101 124z"/>
<path d="M2721 12738 c-50 -139 -85 -248 -80 -252 3 -3 19 -9 36 -12 29 -6 30
-5 58 73 15 43 29 80 31 82 2 2 58 -49 125 -113 66 -64 124 -114 128 -111 4 2
13 22 21 44 16 49 25 37 -142 193 -131 121 -161 138 -177 96z"/>
<path d="M7552 12658 c-9 -11 121 -146 647 -672 526 -526 660 -655 669 -644 9
11 -121 146 -647 672 -526 526 -660 655 -669 644z"/>
<path d="M12187 12012 c-586 -586 -657 -660 -642 -672 15 -12 90 60 673 643
584 584 655 658 642 672 -14 13 -88 -58 -673 -643z"/>
<path d="M17543 12571 c-105 -36 -163 -96 -163 -168 0 -39 39 -112 73 -137 22
-16 44 -21 91 -21 79 0 189 51 224 104 46 70 16 183 -58 222 -43 24 -100 24
-167 0z m155 -93 c20 -20 14 -55 -14 -77 -37 -29 -155 -65 -187 -57 -36 9 -47
51 -20 78 25 24 137 67 179 67 16 1 35 -4 42 -11z"/>
<path d="M10190 10965 c0 -498 -3 -905 -8 -905 -4 0 -295 288 -647 640 -511
511 -642 637 -653 628 -11 -9 114 -139 627 -652 353 -353 641 -644 641 -649 0
-4 -407 -7 -905 -7 -898 0 -905 0 -905 -20 0 -20 7 -20 907 -20 l908 0 -643
-643 c-572 -572 -642 -645 -627 -657 15 -12 89 59 661 631 l644 644 0 -913 c0
-905 0 -912 20 -912 20 0 20 7 20 912 l0 913 643 -643 c513 -513 645 -640 655
-630 10 10 -117 142 -630 655 l-643 643 913 0 c905 0 912 0 912 20 0 20 -7 20
-912 20 l-913 0 644 644 c572 572 643 646 631 661 -12 15 -85 -55 -657 -627
l-643 -643 0 908 c0 900 0 907 -20 907 -20 0 -20 -7 -20 -905z"/>
<path d="M2495 11785 c-106 -38 -136 -179 -54 -256 63 -58 223 -82 291 -43 37
22 78 93 78 136 0 77 -57 137 -155 163 -72 18 -108 18 -160 0z m191 -121 c42
-21 55 -53 33 -81 -11 -12 -28 -14 -84 -10 -97 7 -147 25 -159 59 -7 20 -6 31
4 44 20 23 150 15 206 -12z"/>
<path d="M17893 11610 c-12 -5 -29 -21 -39 -35 l-17 -26 -22 21 c-40 37 -137
24 -168 -24 -39 -61 -26 -169 28 -223 28 -28 40 -33 81 -33 42 0 51 4 83 38
l37 39 26 -20 c34 -26 89 -16 118 20 35 45 23 166 -23 218 -25 28 -71 39 -104
25z"/>
<path d="M2374 11396 c-30 -21 -58 -117 -51 -174 9 -81 89 -120 150 -72 l25
20 6 -24 c13 -54 114 -79 170 -43 54 36 82 156 51 220 -31 66 -120 87 -174 41
-17 -14 -31 -21 -31 -14 0 6 -11 22 -25 35 -28 29 -88 34 -121 11z"/>
<path d="M17822 11221 c-85 -29 -122 -76 -122 -153 0 -126 117 -188 271 -142
105 31 144 80 137 171 -8 95 -66 143 -173 143 -33 -1 -84 -9 -113 -19z m189
-91 c30 -17 25 -66 -9 -84 -39 -20 -148 -38 -183 -31 -40 9 -55 39 -35 70 14
22 35 31 111 48 38 9 96 7 116 -3z"/>
<path d="M2295 10396 c-118 -52 -126 -219 -13 -277 59 -31 185 -33 243 -4 56
28 85 76 85 139 0 106 -65 156 -205 155 -45 0 -93 -6 -110 -13z m197 -96 c56
-16 63 -71 11 -91 -41 -15 -176 -11 -201 7 -39 27 -26 75 23 87 37 9 130 7
167 -3z"/>
<path d="M2690 10000 c0 -20 7 -20 925 -20 918 0 925 0 925 20 0 20 -7 20
-925 20 -918 0 -925 0 -925 -20z"/>
<path d="M4570 10000 c0 -20 7 -20 930 -20 923 0 930 0 930 20 0 20 -7 20
-930 20 -923 0 -930 0 -930 -20z"/>
<path d="M6450 10000 c0 -20 7 -20 930 -20 923 0 930 0 930 20 0 20 -7 20
-930 20 -923 0 -930 0 -930 -20z"/>
<path d="M12100 10000 c0 -20 7 -20 930 -20 923 0 930 0 930 20 0 20 -7 20
-930 20 -923 0 -930 0 -930 -20z"/>
<path d="M13990 10000 c0 -20 7 -20 925 -20 918 0 925 0 925 20 0 20 -7 20
-925 20 -918 0 -925 0 -925 -20z"/>
<path d="M15870 10000 c0 -20 7 -20 930 -20 923 0 930 0 930 20 0 20 -7 20
-930 20 -923 0 -930 0 -930 -20z"/>
<path d="M17912 9906 c-77 -25 -112 -73 -112 -153 0 -108 72 -157 220 -151 94
3 122 15 163 69 50 67 22 181 -53 219 -54 27 -159 35 -218 16z m196 -112 c25
-18 29 -56 7 -74 -22 -18 -154 -25 -198 -11 -38 13 -51 33 -41 63 9 28 39 37
129 37 58 1 87 -3 103 -15z"/>
<path d="M2435 9083 c-101 -31 -140 -81 -133 -170 9 -103 67 -147 189 -140
137 7 219 69 219 166 0 130 -119 192 -275 144z m168 -92 c32 -12 41 -39 22
-67 -16 -26 -62 -41 -146 -50 -70 -8 -99 5 -99 46 0 35 21 49 100 66 69 15 93
16 123 5z"/>
<path d="M17760 8913 c-64 -33 -99 -154 -65 -226 31 -66 120 -87 174 -41 17
14 31 21 31 14 0 -25 49 -60 84 -60 51 0 65 8 88 54 16 30 22 59 23 109 0 63
-2 71 -28 93 -35 30 -85 31 -120 4 l-25 -20 -6 24 c-13 51 -99 78 -156 49z"/>
<path d="M2603 8710 c-12 -5 -31 -22 -44 -39 l-22 -30 -28 21 c-36 27 -90 18
-119 -19 -36 -46 -23 -166 24 -220 19 -22 33 -28 66 -28 36 0 47 6 70 33 26
31 27 32 44 13 53 -58 174 -12 190 73 11 56 -12 136 -49 173 -26 26 -41 33
-71 32 -22 0 -49 -4 -61 -9z"/>
<path d="M8192 8017 c-581 -581 -652 -655 -637 -667 15 -12 90 60 673 643 522
522 654 659 642 667 -8 5 -17 10 -20 10 -3 0 -299 -294 -658 -653z"/>
<path d="M11544 8659 c-4 -7 263 -281 650 -668 528 -528 659 -654 668 -643 9
11 -118 143 -643 668 -360 360 -657 654 -661 654 -4 0 -10 -5 -14 -11z"/>
<path d="M17738 8540 c-53 -10 -87 -36 -109 -83 -48 -107 5 -197 136 -232 70
-18 97 -19 149 -4 113 31 150 180 65 260 -48 45 -165 74 -241 59z m142 -118
c43 -14 57 -23 64 -45 8 -21 6 -31 -6 -43 -28 -29 -168 -15 -225 22 -25 16
-30 53 -11 72 17 17 114 14 178 -6z"/>
<path d="M10190 7180 c0 -923 0 -930 20 -930 20 0 20 7 20 930 0 923 0 930
-20 930 -20 0 -20 -7 -20 -930z"/>
<path d="M2790 7755 c-69 -23 -122 -57 -147 -94 -47 -69 -18 -182 57 -223 72
-40 248 9 301 83 46 65 26 173 -41 221 -35 25 -115 31 -170 13z m144 -101 c39
-38 10 -74 -89 -110 -100 -36 -145 -30 -145 21 0 31 29 53 102 81 75 27 111
30 132 8z"/>
<path d="M17386 7575 c-9 -21 -16 -43 -16 -50 0 -18 254 -258 285 -269 16 -6
28 -6 34 0 13 14 96 262 90 268 -3 3 -19 9 -36 12 -29 6 -30 5 -58 -73 -15
-43 -30 -80 -32 -82 -2 -3 -45 35 -96 85 -51 49 -106 102 -124 118 l-32 28
-15 -37z"/>
<path d="M6861 6686 c-581 -581 -653 -656 -641 -671 12 -15 87 57 671 641 508
507 656 661 647 671 -6 7 -13 13 -17 13 -3 0 -300 -294 -660 -654z"/>
<path d="M12874 7329 c-4 -7 263 -281 650 -668 528 -528 659 -654 668 -643 9
11 -118 143 -643 668 -360 360 -657 654 -661 654 -4 0 -10 -5 -14 -11z"/>
<path d="M2738 7323 c-10 -2 -18 -7 -18 -11 0 -24 97 -272 107 -272 6 0 23 4
37 10 l26 9 -30 82 c-16 46 -28 84 -26 86 2 3 77 -1 165 -8 89 -7 164 -9 167
-6 12 12 -18 79 -39 87 -42 16 -346 35 -389 23z"/>
<path d="M17314 7256 c-59 -26 -102 -108 -89 -172 14 -77 118 -150 230 -161
90 -9 150 33 174 125 23 85 -40 166 -160 203 -71 22 -112 23 -155 5z m172
-125 c66 -31 82 -56 57 -90 -18 -27 -52 -27 -131 1 -98 34 -133 76 -95 113 23
23 88 14 169 -24z"/>
<path d="M3275 6535 c-68 -26 -137 -85 -159 -137 -17 -41 -18 -52 -7 -88 7
-23 27 -58 45 -77 28 -31 40 -37 88 -41 120 -10 268 99 268 198 0 43 -22 90
-59 124 -24 23 -41 30 -83 32 -30 2 -70 -3 -93 -11z m141 -96 c17 -19 17 -23
3 -47 -18 -33 -99 -88 -152 -104 -48 -15 -71 -3 -75 39 -2 24 4 35 32 57 41
31 133 76 157 76 9 0 24 -9 35 -21z"/>
<path d="M16869 6357 c-45 -30 -79 -92 -79 -144 0 -33 7 -50 30 -77 34 -39 88
-61 125 -52 40 10 94 65 107 108 l12 40 23 -26 c36 -43 29 -81 -28 -141 l-29
-31 36 -19 36 -19 25 29 c87 107 84 199 -11 282 -81 72 -184 93 -247 50z"/>
<path d="M3493 6211 c-67 -31 -90 -100 -59 -175 7 -18 25 -42 40 -53 l26 -21
-23 -6 c-12 -3 -30 -6 -39 -6 -30 0 -73 46 -87 94 l-13 46 -32 -18 c-39 -23
-37 -53 5 -123 56 -91 148 -110 257 -55 55 28 118 93 128 131 17 68 -25 152
-92 185 -49 24 -58 24 -111 1z"/>
<path d="M10190 5295 c0 -918 0 -925 20 -925 20 0 20 7 20 925 0 918 0 925
-20 925 -20 0 -20 -7 -20 -925z"/>
<path d="M16682 6030 c-33 -20 -68 -68 -78 -108 -27 -101 115 -232 252 -232
53 0 59 3 99 43 79 79 67 179 -32 251 -89 65 -180 83 -241 46z m105 -90 c64
-29 130 -77 136 -99 7 -27 -19 -61 -48 -61 -52 0 -195 95 -195 130 0 14 38 50
53 50 6 0 31 -9 54 -20z"/>
<path d="M5531 5356 c-581 -581 -653 -656 -641 -671 12 -15 87 57 671 641 508
507 656 661 647 671 -6 7 -13 13 -17 13 -3 0 -300 -294 -660 -654z"/>
<path d="M14212 5998 c-16 -20 1292 -1328 1310 -1310 10 10 -119 144 -643 668
-525 525 -658 653 -667 642z"/>
<path d="M4015 5401 c-100 -46 -172 -146 -162 -222 10 -74 80 -139 149 -139
112 0 264 155 243 248 -23 109 -128 160 -230 113z m133 -83 c31 -31 5 -79 -80
-143 -61 -45 -94 -55 -116 -33 -33 33 11 105 97 160 48 30 80 35 99 16z"/>
<path d="M16154 5261 c-109 -79 -140 -172 -83 -245 60 -76 160 -73 223 6 l25
33 21 -20 20 -21 -52 -58 -52 -59 28 -24 c16 -13 32 -23 36 -21 8 3 150 174
150 181 0 3 -38 37 -84 75 l-84 71 -24 -47 c-13 -26 -36 -54 -51 -62 -24 -13
-30 -13 -54 0 -31 17 -41 56 -23 90 6 11 33 33 60 48 l50 29 -28 26 c-16 15
-31 27 -34 27 -3 0 -23 -13 -44 -29z"/>
<path d="M4280 5112 c-90 -45 -106 -158 -31 -226 20 -18 20 -20 5 -38 -10 -10
-21 -18 -25 -18 -4 0 -29 26 -56 59 l-49 58 -27 -19 c-15 -11 -27 -23 -27 -28
0 -10 138 -174 151 -178 5 -2 45 26 89 63 l80 67 -45 42 c-35 33 -45 49 -45
74 0 32 29 62 61 62 27 0 69 -51 82 -97 6 -24 14 -43 17 -43 3 0 18 11 34 23
27 22 28 26 17 58 -19 54 -61 108 -106 135 -49 29 -78 30 -125 6z"/>
<path d="M15884 4941 c-43 -26 -75 -74 -81 -121 -14 -102 124 -239 241 -240
94 0 170 100 145 193 -14 52 -91 134 -154 163 -61 29 -110 30 -151 5z m113
-100 c62 -45 113 -102 113 -126 0 -48 -51 -59 -103 -23 -64 43 -117 101 -117
128 0 56 46 65 107 21z"/>
<path d="M4949 4400 c-43 -23 -101 -85 -129 -139 -55 -108 14 -231 130 -231
56 0 101 23 150 77 79 84 100 171 57 234 -51 76 -133 99 -208 59z m138 -97 c9
-23 -22 -78 -73 -133 -52 -55 -74 -66 -104 -50 -29 15 -25 60 9 106 33 46 90
99 111 106 19 7 49 -9 57 -29z"/>
<path d="M10190 3409 c0 -881 1 -930 18 -927 16 3 17 57 20 931 2 922 2 927
-18 927 -20 0 -20 -6 -20 -931z"/>
<path d="M15262 4243 l-63 -56 -27 26 -28 27 -32 -33 -33 -34 20 -24 c19 -24
19 -24 -1 -46 l-21 -23 23 -25 c22 -24 25 -24 48 -9 28 19 19 26 117 -94 l68
-83 41 38 c22 21 42 39 44 39 2 1 -4 66 -12 143 -14 128 -19 145 -43 176 -16
19 -30 35 -33 35 -3 -1 -33 -26 -68 -57z"/>
<path d="M5283 4178 c-22 -21 -23 -21 -43 -3 -21 19 -21 19 -45 -10 -24 -30
-24 -30 -5 -47 11 -9 20 -19 20 -23 0 -4 -34 -46 -75 -95 -41 -49 -75 -92 -75
-98 0 -5 20 -23 43 -40 l44 -31 129 36 c103 28 136 42 162 66 17 17 32 36 31
41 0 6 -29 35 -65 64 l-64 53 20 26 21 26 -28 29 c-32 34 -42 35 -70 6z"/>
<path d="M14902 4039 c-56 -28 -92 -81 -92 -134 1 -118 138 -256 241 -242 75
10 139 80 139 152 0 76 -82 189 -164 226 -53 24 -72 24 -124 -2z m85 -86 c36
-24 113 -130 113 -157 0 -53 -52 -61 -104 -16 -44 39 -96 117 -96 145 0 45 41
58 87 28z"/>
<path d="M6002 3623 c-37 -18 -79 -68 -112 -133 -30 -60 -32 -139 -4 -177 35
-46 82 -73 131 -73 54 0 90 18 131 65 54 61 76 113 76 182 1 55 -2 65 -29 93
-58 61 -126 76 -193 43z m123 -83 c17 -19 17 -22 0 -65 -25 -67 -76 -138 -107
-149 -34 -12 -58 6 -58 44 0 56 92 190 130 190 9 0 25 -9 35 -20z"/>
<path d="M14150 3529 c-85 -34 -160 -108 -160 -159 0 -59 56 -120 112 -120 17
0 19 -3 10 -12 -41 -41 14 -138 78 -138 37 0 138 51 170 85 21 22 21 24 6 54
-16 30 -36 42 -36 21 0 -16 -73 -60 -102 -60 -55 0 -37 76 24 95 17 6 17 8 2
38 -9 18 -18 33 -19 35 -1 1 -23 -7 -48 -18 -60 -27 -90 -15 -85 33 4 38 49
72 108 82 22 4 40 9 40 12 0 3 -8 18 -17 34 -18 31 -39 35 -83 18z"/>
<path d="M6332 3434 c-44 -31 -65 -101 -42 -145 9 -16 7 -19 -12 -19 -34 0
-65 -25 -78 -64 -9 -29 -8 -41 6 -68 19 -37 31 -47 94 -81 74 -40 93 -41 114
-6 10 17 16 32 14 33 -1 1 -24 10 -49 20 -57 21 -83 47 -74 75 8 26 43 28 87
5 33 -17 33 -17 60 31 8 14 8 20 -2 23 -7 3 -26 17 -43 32 -25 22 -29 32 -23
54 13 54 69 46 134 -19 l43 -44 20 32 c10 18 19 35 19 38 0 14 -84 82 -124
100 -50 23 -114 24 -144 3z"/>
<path d="M13756 3297 c-84 -48 -106 -126 -63 -221 70 -152 172 -201 275 -133
45 31 76 97 67 145 -10 58 -39 116 -81 162 -65 72 -129 87 -198 47z m92 -81
c34 -30 92 -134 92 -168 0 -56 -54 -64 -97 -14 -29 32 -64 98 -78 143 -4 15 0
28 14 42 27 27 33 26 69 -3z"/>
<path d="M7224 2962 c-82 -60 -129 -223 -86 -302 22 -41 90 -80 140 -80 96 0
183 115 186 247 1 48 -4 68 -20 89 -35 47 -70 67 -126 72 -47 3 -58 0 -94 -26z
m136 -67 c31 -37 -41 -227 -88 -233 -54 -8 -67 48 -32 142 36 95 85 133 120
91z"/>
<path d="M12900 2911 c-69 -27 -125 -53 -124 -60 6 -63 12 -65 89 -36 37 14
70 24 72 21 2 -2 -15 -41 -37 -87 -52 -109 -52 -146 3 -206 38 -43 150 -25
237 37 26 18 28 24 19 48 -5 15 -12 33 -15 41 -3 11 -11 8 -32 -11 -36 -34
-65 -48 -99 -48 -68 0 -69 42 -3 179 47 97 49 106 38 137 -7 19 -14 34 -18 33
-3 0 -61 -22 -130 -48z"/>
<path d="M7579 2863 c-15 -41 -11 -50 34 -66 23 -9 56 -21 72 -27 30 -11 30
-12 -55 -46 -109 -45 -141 -76 -147 -141 -5 -47 -3 -50 35 -85 41 -37 120 -68
174 -68 22 0 31 7 43 36 8 20 15 38 15 40 0 2 -23 4 -51 4 -73 0 -109 22 -109
67 0 30 35 55 145 99 85 35 96 42 106 72 6 18 9 35 6 38 -2 3 -61 27 -131 53
l-127 49 -10 -25z"/>
<path d="M12545 2777 c-75 -29 -105 -71 -105 -149 0 -92 51 -197 114 -234 64
-37 172 -8 211 58 51 87 -13 275 -108 319 -48 21 -69 22 -112 6z m75 -97 c32
-34 75 -158 65 -189 -3 -12 -15 -26 -26 -31 -40 -22 -79 26 -113 139 -20 68
-20 67 4 91 27 27 37 25 70 -10z"/>
<path d="M8469 2577 c-86 -58 -125 -205 -80 -304 43 -94 175 -119 243 -46 46
50 61 93 66 183 3 77 2 88 -20 119 -48 70 -144 92 -209 48z m121 -72 c28 -34
-9 -225 -47 -239 -25 -10 -53 4 -64 31 -9 23 2 125 18 170 17 49 67 69 93 38z"/>
<path d="M11560 2547 c-76 -15 -115 -26 -114 -34 1 -7 2 -24 3 -38 1 -23 3
-24 46 -18 33 4 46 2 50 -8 2 -8 15 -77 28 -154 l24 -140 34 3 c19 1 60 12 92
24 51 18 58 24 53 42 -3 12 -6 27 -6 34 0 16 -25 15 -60 -3 -17 -9 -30 -14
-30 -12 0 2 -9 54 -20 116 -11 62 -18 116 -15 122 4 5 17 9 30 9 43 0 51 8 47
45 -5 42 -2 42 -162 12z"/>
<path d="M8796 2519 c-8 -39 -1 -49 32 -49 49 0 50 -7 26 -135 -13 -66 -26
-136 -30 -156 l-6 -36 53 -6 c72 -9 127 -9 132 1 3 4 8 22 12 40 l7 32 -47 0
c-44 0 -47 2 -42 23 3 12 13 64 23 115 l16 94 43 -6 c46 -7 55 1 55 48 0 20
-10 23 -127 44 -71 12 -131 22 -134 22 -4 0 -9 -14 -13 -31z"/>
<path d="M11150 2472 c-22 -11 -44 -36 -58 -63 -31 -58 -26 -151 11 -232 35
-76 72 -99 150 -94 106 6 150 64 145 187 -6 136 -69 220 -167 220 -26 0 -62
-8 -81 -18z m128 -118 c7 -21 16 -69 19 -105 5 -63 4 -68 -19 -83 -49 -32 -80
6 -98 118 -12 78 -5 114 24 126 30 12 59 -10 74 -56z"/>
</g>
</svg>
