<?xml version="1.0" standalone="no"?>
<!DOCTYPE svg PUBLIC "-//W3C//DTD SVG 20010904//EN"
 "http://www.w3.org/TR/2001/REC-SVG-20010904/DTD/svg10.dtd">
<svg version="1.0" xmlns="http://www.w3.org/2000/svg"
 width="300.000000pt" height="300.000000pt" viewBox="0 0 300.000000 300.000000"
 preserveAspectRatio="xMidYMid meet">
<metadata>
Created by potrace 1.15, written by Peter Selinger 2001-2017
</metadata>
<g transform="translate(0.000000,300.000000) scale(0.100000,-0.100000)"
fill="#000000" stroke="none">
<path d="M1436 2833 c-30 -93 -114 -349 -186 -570 l-131 -403 -559 0 -560 0 0
-37 0 -38 440 -319 c242 -175 440 -324 440 -330 0 -7 -81 -261 -180 -565 -99
-304 -180 -558 -180 -563 0 -6 7 -7 15 -4 9 3 227 159 485 346 258 187 474
340 480 340 6 0 222 -153 480 -340 258 -187 476 -343 485 -346 8 -3 15 -2 15
4 0 5 -81 259 -180 563 -99 304 -180 558 -180 565 0 6 198 155 440 330 l440
319 0 38 0 37 -560 0 -559 0 -131 403 c-216 662 -241 737 -250 737 -5 0 -33
-75 -64 -167z m77 -1490 c6 -6 127 -47 267 -92 140 -46 259 -86 263 -91 9 -8
338 -1012 334 -1017 -2 -1 -199 266 -438 595 l-434 597 -3 -285 -3 -285 -421
-305 c-231 -168 -427 -309 -436 -314 -21 -12 -39 -37 427 604 235 321 428 589
430 595 3 6 -1 6 -10 -1 -8 -6 -129 -48 -269 -94 -191 -61 -260 -80 -277 -74
-23 9 -863 617 -859 622 2 1 315 -99 697 -223 382 -124 697 -224 702 -222 4 1
-67 104 -157 228 l-165 226 167 513 167 513 3 -740 c2 -576 5 -743 15 -750z
m1405 462 c-7 -8 -1392 -455 -1401 -452 -4 1 67 104 159 230 l165 227 541 0
c298 0 539 -2 536 -5z"/>
</g>
</svg>
